<mxfile host="65bd71144e">
    <diagram id="IOAP-3caRY1zAfWwKtwN" name="Page-1">
        <mxGraphModel dx="798" dy="1681" grid="1" gridSize="10" guides="1" tooltips="1" connect="1" arrows="1" fold="1" page="1" pageScale="1" pageWidth="827" pageHeight="1169" math="0" shadow="0">
            <root>
                <mxCell id="0"/>
                <mxCell id="1" parent="0"/>
                <mxCell id="4" value="" style="edgeStyle=none;html=1;" parent="1" source="2" target="3" edge="1">
                    <mxGeometry relative="1" as="geometry"/>
                </mxCell>
                <mxCell id="2" value="main()" style="rounded=0;whiteSpace=wrap;html=1;" parent="1" vertex="1">
                    <mxGeometry x="354" y="20" width="120" height="60" as="geometry"/>
                </mxCell>
                <mxCell id="6" value="" style="html=1;" parent="1" source="3" target="5" edge="1">
                    <mxGeometry relative="1" as="geometry"/>
                </mxCell>
                <mxCell id="9" value="" style="edgeStyle=orthogonalEdgeStyle;html=1;entryX=0.5;entryY=0;entryDx=0;entryDy=0;" parent="1" source="3" target="8" edge="1">
                    <mxGeometry relative="1" as="geometry"/>
                </mxCell>
                <mxCell id="3" value="Взаимодействие с пользователем&lt;br&gt;(user interface):&lt;br&gt;def get_data()&lt;br&gt;def set_data()" style="rounded=0;whiteSpace=wrap;html=1;" parent="1" vertex="1">
                    <mxGeometry x="354" y="120" width="120" height="90" as="geometry"/>
                </mxCell>
                <mxCell id="10" style="edgeStyle=orthogonalEdgeStyle;html=1;entryX=0.5;entryY=1;entryDx=0;entryDy=0;" parent="1" source="5" target="8" edge="1">
                    <mxGeometry relative="1" as="geometry"/>
                </mxCell>
                <mxCell id="5" value="Обработка данных&lt;br&gt;(calculation):&lt;br&gt;def get_my_sum()&lt;br&gt;def get_my_mult()&lt;br&gt;def get_my_dif()&lt;br&gt;def get_my_div()" style="whiteSpace=wrap;html=1;rounded=0;" parent="1" vertex="1">
                    <mxGeometry x="354" y="250" width="120" height="100" as="geometry"/>
                </mxCell>
                <mxCell id="8" value="Логирование&lt;br&gt;(logging):&lt;br&gt;def data_logging()" style="whiteSpace=wrap;html=1;rounded=0;" parent="1" vertex="1">
                    <mxGeometry x="554" y="200" width="120" height="60" as="geometry"/>
                </mxCell>
                <mxCell id="11" value="&lt;h1&gt;&lt;font style=&quot;font-size: 14px&quot;&gt;Калькулятор&lt;/font&gt;&lt;/h1&gt;&lt;div&gt;для работы с рациональными и коплексными числами.&lt;/div&gt;&lt;div&gt;Необходимо организовать меню и систему логирования.&lt;/div&gt;" style="text;html=1;strokeColor=none;fillColor=none;spacing=5;spacingTop=-20;whiteSpace=wrap;overflow=hidden;rounded=0;" parent="1" vertex="1">
                    <mxGeometry x="10" y="-70" width="190" height="120" as="geometry"/>
                </mxCell>
            </root>
        </mxGraphModel>
    </diagram>
</mxfile>